<?xml version="1.0" encoding="UTF-8"?>
<svg id="Layer_1" data-name="Layer 1" xmlns="http://www.w3.org/2000/svg" viewBox="0 0 1000 1000">
  <defs>
    <style>
      .cls-1, .cls-2, .cls-3, .cls-4, .cls-5, .cls-6, .cls-7, .cls-8, .cls-9, .cls-10, .cls-11,
      .cls-12, .cls-13, .cls-14 {
      stroke-width: 0px;
      }

      .cls-2 {
      fill: #017dbb;
      }

      .cls-3 {
      fill: #029245;
      }

      .cls-4 {
      fill: #019244;
      }

      .cls-5 {
      fill: #018fc8;
      }

      .cls-6 {
      fill: #3fab3c;
      }

      .cls-7 {
      fill: #73b7e4;
      }

      .cls-8 {
      fill: #017dbc;
      }

      .cls-9 {
      fill: #027dbc;
      }

      .cls-10 {
      fill: #3fab3d;
      }

      .cls-11 {
      fill: #028fc8;
      }

      .cls-12 {
      fill: #02783f;
      }

      .cls-13 {
      fill: #73b6e4;
      }

      .cls-14 {
      fill: #02773f;
      }
    </style>
  </defs>
  <path class="cls-9"
    d="M681.88,904.57v47.13c-11.32-6.37-21.61-12.16-33.02-18.58v49.07h-1.27c-5.36-3.29-10.64-6.71-16.09-9.83-38.75-22.21-77.49-44.42-116.35-66.43-3.83-2.17-5.17-4.52-5.13-8.87.27-30.09.26-60.18.34-90.27,30.56,17.53,61.09,35.13,91.69,52.59,26.56,15.15,53.21,30.14,79.82,45.2Z" />
  <path class="cls-10"
    d="M194.94,390.48c9.26,5.5,18.58,10.89,27.76,16.5,35.77,21.87,71.49,43.8,107.23,65.72,1.8,1.1,3.56,2.25,6.03,3.82-14.24,7.81-27.99,15.36-42.79,23.47,14.91,8.02,28.95,15.57,43.39,23.33-1.4,1.08-2.31,1.93-3.35,2.57-44.63,27.67-89.27,55.32-133.92,82.95-1.07.66-2.28,1.09-3.42,1.63-50.88-28.37-101.77-56.73-152.65-85.1-6.35-3.96-12.7-7.92-19.51-12.17,8.54-5.13,16.67-10.02,25.91-15.57-8.02-4.98-15.41-9.58-23.18-14.41,6.33-3.91,12.14-7.49,17.94-11.07,16.3-8.83,32.63-17.61,48.9-26.51,19.98-10.93,39.85-22.04,59.86-32.93,13.86-7.54,27.87-14.84,41.81-22.24Z" />
  <path class="cls-10"
    d="M801.59,610.39c-18.94-11.57-37.93-23.08-56.83-34.72-25.94-15.98-51.83-32.05-77.73-48.1-1.92-1.19-3.8-2.46-6.29-4.09,14.66-7.86,28.61-15.34,43.71-23.44-14.56-8-28.32-15.56-42.55-23.38,1.47-1.06,2.52-1.94,3.68-2.65,44.36-27.23,88.73-54.44,133.11-81.64,1.23-.76,2.63-1.25,3.95-1.86.8.22,1.68.3,2.39.69,49.38,26.99,98.75,54.01,148.11,81.03,5.75,3.48,11.49,6.96,18.08,10.95-7.64,4.77-14.99,9.36-23.2,14.48,9.01,5.42,17.23,10.36,25.91,15.57-6.87,4.24-13.23,8.17-19.6,12.11-50.91,28.35-101.82,56.71-152.74,85.06Z" />
  <path class="cls-7"
    d="M303.99,904.59c-7.48,3.86-14.96,7.71-23.82,12.28,0-5.17-.08-9.44.02-13.7.28-11.64.71-23.28.94-34.92.49-24.99.91-49.99,1.27-74.98.04-2.48-.52-4.96-.81-7.44.62-12.64,2.64-25.4,1.49-37.88-1.3-14.06,4.42-21.02,16.32-27.14,19.16-9.85,37.32-21.62,55.91-32.58,22.22-12.73,44.47-25.43,66.67-38.2,19.07-10.98,38.09-22.05,57.67-33.39.45,1.75.98,2.86.98,3.98.04,61.06.03,122.13,0,183.19,0,1.05-.25,2.1-.38,3.14-1.18.42-2.45.67-3.53,1.27-29.17,16.24-58.33,32.51-87.48,48.78-28.42,15.86-56.83,31.73-85.24,47.59Z" />
  <path class="cls-13"
    d="M694.9,96.53c7.67-3.7,15.35-7.4,23.84-11.5-.76,42.17-1.51,83.53-2.26,124.89-.42,18.78-.93,37.57-1.18,56.35-.05,3.55-.94,5.74-4.26,7.51-8,4.28-15.76,9-23.57,13.62-14.32,8.49-28.6,17.04-42.9,25.57-12.69,7.15-25.45,14.18-38.06,21.46-27.29,15.75-54.49,31.64-81.75,47.45-1.56.91-3.28,1.54-5.37,2.51-.23-1.66-.49-2.66-.49-3.66.03-62.01.09-124.02.14-186.03.79-.28,1.64-.46,2.36-.86,43.38-24.15,86.76-48.27,130.09-72.5,14.54-8.13,28.94-16.53,43.4-24.81Z" />
  <path class="cls-13"
    d="M681.88,904.57c-26.61-15.06-53.26-30.05-79.82-45.2-30.61-17.46-61.13-35.05-91.69-52.59-.07-26.7-.18-53.4-.21-80.09-.04-34.12,0-68.24,0-102.36,0-2.25,0-4.5,0-7.93,44.73,25.6,88.39,50.58,132.04,75.56,18.61,10.77,37.13,21.69,55.89,32.17,4.36,2.43,5.68,5.2,5.59,10-.27,14.76-.05,29.53-.01,44.3,0,45.54,0,91.09,0,138.46-8.11-4.59-14.95-8.45-21.78-12.32Z" />
  <path class="cls-13"
    d="M488.5,194.61c.07,43.39.14,86.78.19,130.16.02,17.57,0,35.14,0,52.7v7.64c-6.5-3.69-11.94-6.73-17.34-9.83-37.96-21.81-75.9-43.63-113.86-65.43-1.27-.73-2.65-1.29-3.98-1.92-17.51-10.19-34.94-20.5-52.58-30.46-4.18-2.36-5.88-4.88-5.78-9.85.33-16.26.05-32.53,0-48.79.09-26.5.11-53.01.29-79.51.11-16.1.45-32.2.72-48.3.02-1.4.33-2.81.63-5.17,7.22,3.85,13.85,7.39,20.47,10.92,17.07,9.75,34.14,19.49,51.2,29.24,40.01,22.86,80.02,45.73,120.03,68.6Z" />
  <path class="cls-6"
    d="M295.15,218.83c.05,16.27.33,32.54,0,48.79-.1,4.97,1.59,7.49,5.78,9.85,17.64,9.95,35.07,20.27,52.58,30.46-1.34,48.47-2.69,96.93-4.06,146.6-47.4-29.19-94.15-57.97-140.89-86.75.88-15.24,1.87-30.48,2.61-45.73.96-19.97,1.75-39.95,2.55-59.93.92-23.14,1.77-46.29,2.64-69.44.48-7.28.96-14.55,1.5-22.68,26.17,16.53,51.73,32.68,77.3,48.82Z" />
  <path class="cls-6"
    d="M703.66,778.43c-.03-14.77-.26-29.54.01-44.3.09-4.8-1.24-7.56-5.59-10-18.76-10.49-37.28-21.41-55.89-32.17,1.58-48.42,3.15-96.84,4.75-146.16,2.62,1.49,4.59,2.53,6.47,3.69,42.65,26.38,85.3,52.76,127.91,79.2,2.26,1.4,4.17,3.36,6.24,5.06-1.78,56.84-3.57,113.69-5.35,170.53-.6,6.6-1.2,13.19-1.88,20.69-25.85-15.69-51.26-31.12-76.67-46.55Z" />
  <path class="cls-6"
    d="M355.3,688.22c-18.59,10.96-36.75,22.73-55.91,32.58-11.9,6.12-17.62,13.08-16.32,27.14,1.15,12.48-.87,25.25-1.49,37.88-20.83,12.77-41.67,25.54-62.52,38.29-.32.2-.81.13-2.89.4,0-6.82,0-13.47,0-20.12-.81-14.73-1.78-29.46-2.38-44.2-.99-24.26-1.8-48.54-2.56-72.81-.56-17.96-.92-35.92-1.37-53.88,1.09-.93,2.08-2.03,3.29-2.78,44.61-27.68,89.23-55.32,133.86-82.97.88-.55,1.84-.98,3.67-1.95,1.55,47.88,3.09,95.15,4.62,142.43Z" />
  <path class="cls-6"
    d="M644.57,312.97c14.3-8.53,28.58-17.08,42.9-25.57,7.81-4.63,15.57-9.34,23.57-13.62,3.32-1.78,4.21-3.96,4.26-7.51.26-18.79.76-37.57,1.18-56.35,20.84-13.14,41.69-26.27,63.38-39.94.45,8.09.86,15.35,1.26,22.62.44,7.78.94,15.56,1.29,23.34.47,10.54.83,21.08,1.23,31.63.88,23.41,1.78,46.83,2.6,70.24.52,14.99.87,29.98,1.4,44.96.06,1.64.74,3.25,1.14,4.87-13.43,8.42-26.8,16.94-40.29,25.24-31.37,19.3-62.8,38.5-94.21,57.73-1.78,1.09-3.61,2.12-6.37,3.73-1.12-47.64-2.23-94.5-3.34-141.36Z" />
  <path class="cls-11"
    d="M488.5,194.61c-40.01-22.87-80.02-45.74-120.03-68.6-17.06-9.75-34.13-19.49-51.2-29.24,0-15.18,0-30.36,0-46.89,8.94,5.08,16.72,9.59,24.59,13.92,2.71,1.49,5.64,2.56,8.48,3.82,9.07,5.4,18.08,10.91,27.23,16.17,25.45,14.64,50.93,29.26,76.48,43.74,11.37,6.44,22.94,12.54,34.42,18.79.01,16.09.02,32.19.04,48.28Z" />
  <path class="cls-5"
    d="M303.99,904.59c28.41-15.86,56.82-31.73,85.24-47.59,29.15-16.27,58.31-32.54,87.48-48.78,1.08-.6,2.35-.86,3.53-1.27-.09,15.57-.17,31.15-.25,46.72-3.28,1.4-6.72,2.51-9.83,4.23-29.57,16.37-59.11,32.79-88.58,49.31-14.9,8.35-29.66,16.95-44.48,25.44-5.79,2.85-11.62,5.62-17.35,8.58-4.99,2.57-9.87,5.35-15.75,8.56v-45.2Z" />
  <path class="cls-5"
    d="M694.9,96.53c-14.46,8.28-28.86,16.67-43.4,24.81-43.33,24.23-86.72,48.36-130.09,72.5-.72.4-1.57.58-2.36.86.04-15.28.08-30.57.12-45.85,6.33-3.4,12.7-6.71,18.97-10.2,37.07-20.62,74.13-41.25,111.13-61.97,4.35-2.44,8.35-5.49,12.51-8.26,2.11-.59,4.41-.82,6.3-1.83,8.7-4.64,17.29-9.5,26.82-14.78v44.72Z" />
  <path class="cls-8"
    d="M337.09,932.66c14.82-8.49,29.58-17.09,44.48-25.44,29.48-16.53,59.02-32.94,88.58-49.31,3.1-1.72,6.54-2.83,9.83-4.23.15,14.8.38,29.6.32,44.4,0,1.46-1.48,3.52-2.85,4.28-46.13,25.79-92.33,51.45-138.54,77.1-.29.16-.79-.03-1.83-.1v-46.71Z" />
  <path class="cls-8"
    d="M661.78,68.41c-4.16,2.77-8.16,5.83-12.51,8.26-37.01,20.73-74.07,41.35-111.13,61.97-6.27,3.49-12.64,6.8-18.97,10.2-.14-15.03-.46-30.07-.2-45.1.03-1.95,2.64-4.53,4.69-5.69,39.5-22.17,79.1-44.17,118.68-66.2,6.08-3.38,12.18-6.74,19.45-10.76v47.31Z" />
  <path class="cls-2"
    d="M488.46,146.32c-11.48-6.25-23.05-12.35-34.42-18.79-25.55-14.48-51.02-29.09-76.48-43.74-9.15-5.26-18.16-10.77-27.23-16.17V19.94c2.65,1.29,4.5,2.07,6.23,3.06,42.37,24.22,84.71,48.5,127.14,72.61,3.73,2.12,5.32,4.41,5.19,8.86-.42,13.94-.33,27.9-.44,41.86Z" />
  <path class="cls-3"
    d="M194.94,390.48c-13.94,7.41-27.94,14.7-41.81,22.24-20,10.88-39.88,22-59.86,32.93-16.27,8.9-32.6,17.68-48.9,26.51-11.31-6.83-22.62-13.66-34.38-20.75,9.8-5.67,18.96-10.97,28.12-16.26,15.92-8.62,31.88-17.19,47.76-25.88,24.56-13.44,49.06-26.98,73.59-40.47,11.82,7.23,23.65,14.46,35.47,21.69Z" />
  <path class="cls-3"
    d="M953.15,472.22c-49.37-27.02-98.73-54.03-148.11-81.03-.71-.39-1.59-.47-2.39-.69,11.79-7.24,23.58-14.48,35.37-21.71,6.7,3.56,13.45,7.04,20.1,10.69,33.8,18.55,67.58,37.14,101.36,55.72,9.08,5.21,18.17,10.42,28.16,16.16-11.75,7.11-23.12,13.99-34.49,20.86Z" />
  <path class="cls-3"
    d="M43.22,525.38c50.88,28.37,101.77,56.73,152.65,85.1-11.45,7.16-22.9,14.31-34.35,21.47-8.72-5.11-17.36-10.35-26.17-15.3-32.43-18.19-64.91-36.27-97.37-54.4-8.96-5.31-17.91-10.61-27.73-16.43,11.31-7.01,22.13-13.73,32.96-20.45Z" />
  <path class="cls-4"
    d="M788.78,367.64c-.39-1.62-1.08-3.24-1.14-4.87-.52-14.99-.87-29.98-1.4-44.96-.82-23.42-1.72-46.83-2.6-70.24-.39-10.54-.75-21.09-1.23-31.63-.35-7.78-.85-15.56-1.29-23.34,11.03-6.46,22.06-12.93,34.39-20.15,0,8.18,0,15.27,0,22.36,2.17,50.54,4.35,101.09,6.52,151.64-2.19,1.8-4.22,3.87-6.61,5.34-8.81,5.4-17.75,10.6-26.64,15.87Z" />
  <path class="cls-3"
    d="M801.59,610.39c50.91-28.35,101.82-56.71,152.74-85.06,10.8,6.72,21.59,13.44,32.95,20.51-9.8,5.78-18.74,11.06-27.69,16.34-31.67,17.55-63.38,35.04-94.99,52.7-9.7,5.42-19.13,11.35-28.68,17.04-11.44-7.18-22.89-14.35-34.33-21.53Z" />
  <path class="cls-4"
    d="M782.21,804.29c1.78-56.84,3.57-113.69,5.35-170.53,4.56,2.42,9.24,4.65,13.65,7.32,6.99,4.24,13.81,8.78,20.69,13.19-.86,27.95-1.76,55.9-2.55,83.85-.52,18.52-.87,37.05-1.29,55.57-.37,4.46-.93,8.91-1.07,13.37-.19,5.68-.05,11.37-.05,18.92-12.46-7.78-23.6-14.73-34.74-21.69Z" />
  <path class="cls-4"
    d="M209.86,633.49c.45,17.96.81,35.93,1.37,53.88.76,24.27,1.57,48.54,2.56,72.81.6,14.74,1.58,29.47,2.38,44.2-11.28,6.8-22.57,13.6-34.46,20.77-.83-10.87-1.61-21-2.39-31.13.45-2.24,1.32-4.49,1.26-6.72-.17-5.65-.9-11.29-1.17-16.94-.52-11.13-.92-22.27-1.28-33.41-.89-27.55-1.73-55.11-2.59-82.66,11.44-6.93,22.87-13.87,34.31-20.8Z" />
  <path class="cls-4"
    d="M216.35,192.68c-.88,23.15-1.72,46.29-2.64,69.44-.79,19.98-1.59,39.96-2.55,59.93-.73,15.25-1.73,30.49-2.61,45.73-10.99-6.85-21.98-13.7-32.97-20.55.41-4.82,1-9.62,1.2-14.45.93-22.55,1.67-45.11,2.63-67.66.71-16.84,1.76-33.67,2.4-50.51.14-3.71-.78-7.45-1.22-11.18.73-9.84,1.46-19.69,2.26-30.53,11.29,6.67,22.39,13.22,33.49,19.77Z" />
  <path class="cls-14"
    d="M180.6,203.43c.43,3.73,1.36,7.48,1.22,11.18-.64,16.84-1.69,33.67-2.4,50.51-.96,22.55-1.7,45.11-2.63,67.66-.2,4.82-.79,9.63-1.2,14.45-11.59-6.92-23.23-13.73-34.67-20.88-1.28-.8-1.98-3.52-1.91-5.32,1.25-32.33,2.65-64.65,4.04-96.97.57-13.3,1.18-26.6,1.82-41.04,8.65,5.21,16.59,10.09,24.65,14.78,3.57,2.08,7.38,3.76,11.08,5.62Z" />
  <path class="cls-12"
    d="M822.03,346.43c-2.17-50.55-4.35-101.09-6.52-151.64,2.06-.76,4.28-1.25,6.15-2.34,9.42-5.56,18.75-11.29,28.98-17.49.49,9.74,1,18.67,1.38,27.59,1.64,39.29,3.3,78.59,4.67,117.89.07,2.06-1.89,4.95-3.75,6.2-10.16,6.81-20.58,13.23-30.9,19.78Z" />
  <path class="cls-14"
    d="M37.98,562.25c32.46,18.12,64.95,36.21,97.37,54.4,8.81,4.94,17.45,10.19,26.17,15.3-10.57,6.63-21.07,13.36-31.79,19.76-1.55.93-4.53.98-6.11.11-40.16-22.18-80.22-44.54-121.26-67.41,12.22-7.6,23.91-14.88,35.6-22.15Z" />
  <path class="cls-14"
    d="M835.92,631.92c9.55-5.69,18.98-11.62,28.68-17.04,31.61-17.67,63.32-35.15,94.99-52.7,11.63,7.27,23.25,14.54,35.53,22.21-17.05,9.5-33.4,18.6-49.75,27.72-23.46,13.07-46.95,26.09-70.33,39.3-3.17,1.79-5.5,1.79-8.53-.19-10.1-6.58-20.37-12.89-30.58-19.3Z" />
  <path class="cls-14"
    d="M175.55,654.29c.86,27.55,1.7,55.11,2.59,82.66.36,11.14.76,22.28,1.28,33.41.26,5.65.99,11.29,1.17,16.94.07,2.22-.81,4.48-1.26,6.72-9.63,5.66-19.26,11.32-28.89,16.98-1.95,1.15-3.91,2.28-6.6,3.85-.38-7.25-.82-13.71-1.05-20.17-1.31-37.29-2.48-74.58-3.97-111.86-.19-4.68,1.22-7.24,5.22-9.53,10.64-6.09,21.02-12.63,31.51-19Z" />
  <path class="cls-14"
    d="M818.07,793.68c.43-18.52.77-37.05,1.29-55.57.79-27.95,1.69-55.9,2.55-83.85,11.36,6.91,22.77,13.73,34,20.84,1.4.89,2.65,3.34,2.59,5.02-1.43,44.6-3.04,89.2-4.64,134.71-12.36-7.31-24.07-14.23-35.79-21.15Z" />
  <path class="cls-14"
    d="M959.48,435.2c-33.79-18.58-67.56-37.17-101.36-55.72-6.65-3.65-13.4-7.13-20.1-10.69,11.08-6.96,22.11-14.01,33.32-20.75,1.38-.83,4.13-.65,5.64.17,39.21,21.33,78.34,42.81,118.22,64.67-12.24,7.65-23.97,14.98-35.71,22.32Z" />
  <path class="cls-14"
    d="M159.47,368.79c-24.53,13.49-49.03,27.03-73.59,40.47-15.88,8.7-31.84,17.26-47.76,25.88-11.79-7.32-23.58-14.64-35.83-22.24,39.86-21.81,79.1-43.31,118.42-64.67,1.51-.82,4.24-1.08,5.6-.26,11.17,6.76,22.14,13.84,33.17,20.82Z" />
</svg>