<svg width="815" height="57" viewBox="0 0 815 57" fill="none" xmlns="http://www.w3.org/2000/svg">
<g clip-path="url(#clip0_6_60)">
<path d="M815 55H817V51H815V55ZM100 55H815V51H100V55Z" fill="#3C3C43" fill-opacity="0.301961"/>
<path d="M0 55H2.38095V51H0V55ZM7.14286 55H11.9048V51H7.14286V55ZM16.6667 55H21.4286V51H16.6667V55ZM26.1905 55H30.9524V51H26.1905V55ZM35.7143 55H40.4762V51H35.7143V55ZM45.2381 55H50V51H45.2381V55ZM54.7619 55H59.5238V51H54.7619V55ZM64.2857 55H69.0476V51H64.2857V55ZM73.8095 55H78.5714V51H73.8095V55ZM83.3333 55H88.0952V51H83.3333V55ZM92.8571 55H97.619V51H92.8571V55Z" fill="#3C3C43" fill-opacity="0.301961"/>
<line x1="713" y1="51" x2="713" y2="36" stroke="#3C3C43" stroke-opacity="0.301961" stroke-width="4"/>
<line x1="102" y1="51" x2="102" y2="36" stroke="#3C3C43" stroke-opacity="0.301961" stroke-width="4"/>
<path d="M677.768 29V25.6761L685.535 18.4851C686.195 17.8459 686.749 17.2706 687.197 16.7592C687.651 16.2479 687.996 15.7472 688.23 15.2571C688.464 14.7599 688.582 14.2237 688.582 13.6484C688.582 13.0092 688.436 12.4588 688.145 11.9972C687.854 11.5284 687.456 11.1697 686.952 10.9212C686.447 10.6655 685.876 10.5376 685.237 10.5376C684.569 10.5376 683.987 10.6726 683.489 10.9425C682.992 11.2124 682.609 11.5994 682.339 12.1037C682.069 12.608 681.934 13.2081 681.934 13.9041H677.555C677.555 12.4766 677.879 11.2372 678.525 10.1861C679.171 9.13494 680.077 8.32173 681.241 7.74645C682.406 7.17116 683.749 6.88352 685.268 6.88352C686.831 6.88352 688.191 7.16051 689.349 7.71449C690.513 8.26136 691.419 9.02131 692.065 9.99432C692.712 10.9673 693.035 12.0824 693.035 13.3395C693.035 14.1634 692.871 14.9766 692.545 15.7791C692.225 16.5817 691.653 17.473 690.83 18.4531C690.006 19.4261 688.844 20.5945 687.346 21.9581L684.161 25.0795V25.2287H693.322V29H677.768ZM705.22 29.4794C703.387 29.4723 701.811 29.0213 700.49 28.1264C699.176 27.2315 698.164 25.9354 697.453 24.2379C696.75 22.5405 696.402 20.4986 696.409 18.1122C696.409 15.733 696.761 13.7053 697.464 12.0291C698.174 10.353 699.186 9.07812 700.5 8.20455C701.821 7.32386 703.394 6.88352 705.22 6.88352C707.045 6.88352 708.615 7.32386 709.928 8.20455C711.249 9.08523 712.265 10.3636 712.975 12.0398C713.686 13.7088 714.037 15.733 714.03 18.1122C714.03 20.5057 713.675 22.5511 712.965 24.2486C712.262 25.946 711.253 27.2422 709.939 28.1371C708.625 29.032 707.052 29.4794 705.22 29.4794ZM705.22 25.6548C706.47 25.6548 707.468 25.0263 708.213 23.7692C708.959 22.5121 709.328 20.6264 709.321 18.1122C709.321 16.4574 709.151 15.0795 708.81 13.9787C708.476 12.8778 708 12.0504 707.382 11.4964C706.771 10.9425 706.051 10.6655 705.22 10.6655C703.977 10.6655 702.982 11.2869 702.237 12.5298C701.491 13.7727 701.115 15.6335 701.107 18.1122C701.107 19.7884 701.274 21.1875 701.608 22.3097C701.949 23.4247 702.428 24.2628 703.046 24.8239C703.664 25.3778 704.389 25.6548 705.22 25.6548ZM717.319 29V25.6761L725.086 18.4851C725.746 17.8459 726.3 17.2706 726.748 16.7592C727.202 16.2479 727.547 15.7472 727.781 15.2571C728.015 14.7599 728.132 14.2237 728.132 13.6484C728.132 13.0092 727.987 12.4588 727.696 11.9972C727.404 11.5284 727.007 11.1697 726.502 10.9212C725.998 10.6655 725.426 10.5376 724.787 10.5376C724.12 10.5376 723.537 10.6726 723.04 10.9425C722.543 11.2124 722.159 11.5994 721.89 12.1037C721.62 12.608 721.485 13.2081 721.485 13.9041H717.106C717.106 12.4766 717.429 11.2372 718.076 10.1861C718.722 9.13494 719.627 8.32173 720.792 7.74645C721.957 7.17116 723.299 6.88352 724.819 6.88352C726.382 6.88352 727.742 7.16051 728.9 7.71449C730.064 8.26136 730.97 9.02131 731.616 9.99432C732.262 10.9673 732.586 12.0824 732.586 13.3395C732.586 14.1634 732.422 14.9766 732.096 15.7791C731.776 16.5817 731.204 17.473 730.38 18.4531C729.556 19.4261 728.395 20.5945 726.897 21.9581L723.711 25.0795V25.2287H732.873V29H717.319ZM735.417 25.1648V21.532L744.525 7.18182H747.657V12.2102H745.804L740.062 21.2976V21.468H753.006V25.1648H735.417ZM745.889 29V24.0568L745.974 22.4482V7.18182H750.3V29H745.889Z" fill="url(#paint0_linear_6_60)"/>
<path d="M64.7685 29V25.6761L72.5348 18.4851C73.1953 17.8459 73.7493 17.2706 74.1967 16.7592C74.6513 16.2479 74.9957 15.7472 75.2301 15.2571C75.4645 14.7599 75.5817 14.2237 75.5817 13.6484C75.5817 13.0092 75.4361 12.4588 75.1449 11.9972C74.8537 11.5284 74.456 11.1697 73.9517 10.9212C73.4474 10.6655 72.8757 10.5376 72.2365 10.5376C71.5689 10.5376 70.9865 10.6726 70.4893 10.9425C69.9922 11.2124 69.6087 11.5994 69.3388 12.1037C69.0689 12.608 68.9339 13.2081 68.9339 13.9041H64.5554C64.5554 12.4766 64.8786 11.2372 65.5249 10.1861C66.1712 9.13494 67.0767 8.32173 68.2415 7.74645C69.4063 7.17116 70.7486 6.88352 72.2685 6.88352C73.831 6.88352 75.1911 7.16051 76.3487 7.71449C77.5135 8.26136 78.419 9.02131 79.0653 9.99432C79.7116 10.9673 80.0348 12.0824 80.0348 13.3395C80.0348 14.1634 79.8714 14.9766 79.5447 15.7791C79.2251 16.5817 78.6534 17.473 77.8295 18.4531C77.0057 19.4261 75.8445 20.5945 74.3459 21.9581L71.1605 25.0795V25.2287H80.3224V29H64.7685ZM92.2196 29.4794C90.3873 29.4723 88.8105 29.0213 87.4895 28.1264C86.1756 27.2315 85.1635 25.9354 84.4533 24.2379C83.7502 22.5405 83.4022 20.4986 83.4093 18.1122C83.4093 15.733 83.7608 13.7053 84.464 12.0291C85.1742 10.353 86.1863 9.07812 87.5002 8.20455C88.8212 7.32386 90.3944 6.88352 92.2196 6.88352C94.0449 6.88352 95.6145 7.32386 96.9284 8.20455C98.2495 9.08523 99.2651 10.3636 99.9753 12.0398C100.686 13.7088 101.037 15.733 101.03 18.1122C101.03 20.5057 100.675 22.5511 99.9647 24.2486C99.2615 25.946 98.253 27.2422 96.9391 28.1371C95.6252 29.032 94.052 29.4794 92.2196 29.4794ZM92.2196 25.6548C93.4696 25.6548 94.4675 25.0263 95.2132 23.7692C95.959 22.5121 96.3283 20.6264 96.3212 18.1122C96.3212 16.4574 96.1507 15.0795 95.8098 13.9787C95.476 12.8778 95.0002 12.0504 94.3823 11.4964C93.7715 10.9425 93.0506 10.6655 92.2196 10.6655C90.9767 10.6655 89.9824 11.2869 89.2367 12.5298C88.4909 13.7727 88.1145 15.6335 88.1074 18.1122C88.1074 19.7884 88.2743 21.1875 88.6081 22.3097C88.949 23.4247 89.4284 24.2628 90.0463 24.8239C90.6642 25.3778 91.3887 25.6548 92.2196 25.6548ZM113.811 7.18182V29H109.199V11.5604H109.071L104.074 14.6925V10.6016L109.475 7.18182H113.811ZM118.667 25.1648V21.532L127.775 7.18182H130.907V12.2102H129.054L123.312 21.2976V21.468H136.256V25.1648H118.667ZM129.139 29V24.0568L129.224 22.4482V7.18182H133.55V29H129.139Z" fill="url(#paint1_linear_6_60)"/>
<line x1="168.5" y1="51" x2="168.5" y2="41" stroke="#3C3C43" stroke-opacity="0.301961" stroke-width="3"/>
<line x1="228.5" y1="51" x2="228.5" y2="41" stroke="#3C3C43" stroke-opacity="0.301961" stroke-width="3"/>
<line x1="288.5" y1="51" x2="288.5" y2="41" stroke="#3C3C43" stroke-opacity="0.301961" stroke-width="3"/>
<line x1="348.5" y1="51" x2="348.5" y2="41" stroke="#3C3C43" stroke-opacity="0.301961" stroke-width="3"/>
<line x1="408.5" y1="51" x2="408.5" y2="41" stroke="#3C3C43" stroke-opacity="0.301961" stroke-width="3"/>
<line x1="468.5" y1="51" x2="468.5" y2="41" stroke="#3C3C43" stroke-opacity="0.301961" stroke-width="3"/>
<line x1="528.5" y1="51" x2="528.5" y2="41" stroke="#3C3C43" stroke-opacity="0.301961" stroke-width="3"/>
<line x1="588.5" y1="51" x2="588.5" y2="41" stroke="#3C3C43" stroke-opacity="0.301961" stroke-width="3"/>
<line x1="648.5" y1="51" x2="648.5" y2="41" stroke="#3C3C43" stroke-opacity="0.301961" stroke-width="3"/>
<path d="M155.784 18.5455V25.1761H153.193V18.5455H155.784ZM166.024 18.5455V36H162.334V22.0483H162.232L158.234 24.554V21.2812L162.555 18.5455H166.024ZM176.548 36.2386C175.343 36.2386 174.269 36.017 173.326 35.5739C172.388 35.1307 171.644 34.5199 171.093 33.7415C170.542 32.9631 170.255 32.071 170.232 31.0653H173.812C173.852 31.7415 174.136 32.2898 174.664 32.7102C175.192 33.1307 175.82 33.3409 176.548 33.3409C177.127 33.3409 177.638 33.2131 178.082 32.9574C178.531 32.696 178.88 32.3352 179.13 31.875C179.386 31.4091 179.513 30.875 179.513 30.2727C179.513 29.6591 179.383 29.1193 179.121 28.6534C178.866 28.1875 178.511 27.8239 178.056 27.5625C177.602 27.3011 177.082 27.1676 176.496 27.1619C175.985 27.1619 175.488 27.267 175.005 27.4773C174.528 27.6875 174.156 27.9744 173.888 28.3381L170.607 27.75L171.434 18.5455H182.104V21.5625H174.477L174.025 25.9347H174.127C174.434 25.5028 174.897 25.1449 175.516 24.8608C176.136 24.5767 176.829 24.4347 177.596 24.4347C178.647 24.4347 179.585 24.6818 180.408 25.1761C181.232 25.6705 181.883 26.3494 182.36 27.2131C182.837 28.071 183.073 29.0597 183.067 30.179C183.073 31.3551 182.8 32.4006 182.249 33.3153C181.704 34.2244 180.94 34.9403 179.957 35.4631C178.979 35.9801 177.843 36.2386 176.548 36.2386Z" fill="url(#paint2_linear_6_60)"/>
<path d="M215.784 18.5455V25.1761H213.193V18.5455H215.784ZM226.024 18.5455V36H222.334V22.0483H222.232L218.234 24.554V21.2812L222.555 18.5455H226.024ZM236.871 36.2386C235.974 36.233 235.107 36.0824 234.272 35.7869C233.442 35.4915 232.698 35.0114 232.039 34.3466C231.38 33.6818 230.857 32.8011 230.471 31.7045C230.09 30.608 229.9 29.2614 229.9 27.6648C229.906 26.1989 230.073 24.8892 230.403 23.7358C230.738 22.5767 231.215 21.5937 231.835 20.7869C232.46 19.9801 233.207 19.3665 234.076 18.946C234.945 18.5199 235.92 18.3068 236.999 18.3068C238.164 18.3068 239.192 18.5341 240.085 18.9886C240.977 19.4375 241.692 20.0483 242.232 20.821C242.778 21.5938 243.107 22.4602 243.221 23.4205H239.582C239.44 22.8125 239.141 22.3352 238.687 21.9886C238.232 21.642 237.67 21.4688 236.999 21.4688C235.863 21.4688 234.999 21.9631 234.408 22.9517C233.823 23.9403 233.525 25.2841 233.513 26.983H233.633C233.894 26.4659 234.246 26.0256 234.69 25.6619C235.138 25.2926 235.647 25.0114 236.215 24.8182C236.789 24.6193 237.394 24.5199 238.031 24.5199C239.065 24.5199 239.985 24.7642 240.792 25.2528C241.599 25.7358 242.235 26.4006 242.701 27.2472C243.167 28.0937 243.4 29.0625 243.4 30.1534C243.4 31.3352 243.124 32.3864 242.573 33.3068C242.028 34.2273 241.263 34.9489 240.281 35.4716C239.303 35.9886 238.167 36.2443 236.871 36.2386ZM236.854 33.3409C237.423 33.3409 237.931 33.2045 238.38 32.9318C238.829 32.6591 239.181 32.2898 239.437 31.8239C239.692 31.358 239.82 30.8352 239.82 30.2557C239.82 29.6761 239.692 29.1562 239.437 28.696C239.187 28.2358 238.84 27.8693 238.397 27.5966C237.954 27.3239 237.448 27.1875 236.88 27.1875C236.454 27.1875 236.059 27.267 235.695 27.4261C235.337 27.5852 235.022 27.8068 234.749 28.0909C234.482 28.375 234.272 28.7045 234.119 29.0795C233.965 29.4489 233.888 29.8437 233.888 30.2642C233.888 30.8267 234.016 31.3409 234.272 31.8068C234.533 32.2727 234.886 32.6449 235.329 32.9233C235.778 33.2017 236.286 33.3409 236.854 33.3409Z" fill="url(#paint3_linear_6_60)"/>
<path d="M276.784 18.5455V25.1761H274.193V18.5455H276.784ZM287.024 18.5455V36H283.334V22.0483H283.232L279.234 24.554V21.2812L283.555 18.5455H287.024ZM291.863 36L299.099 21.6818V21.5625H290.67V18.5455H302.917V21.6051L295.673 36H291.863Z" fill="url(#paint4_linear_6_60)"/>
<path d="M335.784 18.5455V25.1761H333.193V18.5455H335.784ZM346.024 18.5455V36H342.334V22.0483H342.232L338.234 24.554V21.2812L342.555 18.5455H346.024ZM356.684 36.2386C355.371 36.2386 354.204 36.0256 353.181 35.5994C352.164 35.1676 351.366 34.5795 350.786 33.8352C350.207 33.0909 349.917 32.2472 349.917 31.304C349.917 30.5767 350.082 29.9091 350.411 29.3011C350.746 28.6875 351.201 28.179 351.775 27.7756C352.349 27.3665 352.991 27.1051 353.701 26.9915V26.8722C352.769 26.6847 352.013 26.233 351.434 25.517C350.854 24.7955 350.565 23.9574 350.565 23.0028C350.565 22.0994 350.829 21.2955 351.357 20.5909C351.886 19.8807 352.61 19.3239 353.531 18.9205C354.457 18.5114 355.508 18.3068 356.684 18.3068C357.86 18.3068 358.908 18.5114 359.829 18.9205C360.755 19.3295 361.482 19.8892 362.011 20.5994C362.539 21.304 362.806 22.1051 362.812 23.0028C362.806 23.9631 362.511 24.8011 361.925 25.517C361.34 26.233 360.59 26.6847 359.675 26.8722V26.9915C360.374 27.1051 361.008 27.3665 361.576 27.7756C362.15 28.179 362.604 28.6875 362.94 29.3011C363.281 29.9091 363.454 30.5767 363.46 31.304C363.454 32.2472 363.161 33.0909 362.582 33.8352C362.002 34.5795 361.201 35.1676 360.178 35.5994C359.161 36.0256 357.996 36.2386 356.684 36.2386ZM356.684 33.5284C357.269 33.5284 357.781 33.4233 358.218 33.2131C358.656 32.9972 358.996 32.7017 359.241 32.3267C359.491 31.946 359.616 31.5085 359.616 31.0142C359.616 30.5085 359.488 30.0625 359.232 29.6761C358.977 29.2841 358.63 28.9773 358.192 28.7557C357.755 28.5284 357.252 28.4148 356.684 28.4148C356.121 28.4148 355.619 28.5284 355.175 28.7557C354.732 28.9773 354.383 29.2841 354.127 29.6761C353.877 30.0625 353.752 30.5085 353.752 31.0142C353.752 31.5085 353.874 31.946 354.119 32.3267C354.363 32.7017 354.707 32.9972 355.15 33.2131C355.593 33.4233 356.104 33.5284 356.684 33.5284ZM356.684 25.7301C357.173 25.7301 357.607 25.6307 357.988 25.4318C358.369 25.233 358.667 24.9574 358.883 24.6051C359.099 24.2528 359.207 23.8466 359.207 23.3864C359.207 22.9318 359.099 22.5341 358.883 22.1932C358.667 21.8466 358.371 21.5767 357.996 21.3835C357.621 21.1847 357.184 21.0852 356.684 21.0852C356.19 21.0852 355.752 21.1847 355.371 21.3835C354.991 21.5767 354.692 21.8466 354.477 22.1932C354.266 22.5341 354.161 22.9318 354.161 23.3864C354.161 23.8466 354.269 24.2528 354.485 24.6051C354.701 24.9574 354.999 25.233 355.38 25.4318C355.761 25.6307 356.195 25.7301 356.684 25.7301Z" fill="url(#paint5_linear_6_60)"/>
<path d="M395.784 18.5455V25.1761H393.193V18.5455H395.784ZM406.024 18.5455V36H402.334V22.0483H402.232L398.234 24.554V21.2812L402.555 18.5455H406.024ZM416.488 18.3068C417.386 18.3068 418.249 18.4574 419.079 18.7585C419.914 19.0597 420.658 19.5398 421.312 20.1989C421.971 20.858 422.491 21.733 422.871 22.8239C423.258 23.9091 423.454 25.2415 423.46 26.821C423.46 28.304 423.292 29.6278 422.957 30.7926C422.627 31.9517 422.153 32.9375 421.533 33.75C420.914 34.5625 420.167 35.1818 419.292 35.608C418.417 36.0284 417.44 36.2386 416.36 36.2386C415.195 36.2386 414.167 36.0142 413.275 35.5653C412.383 35.1108 411.664 34.4943 411.119 33.7159C410.579 32.9318 410.252 32.0511 410.138 31.0739H413.778C413.92 31.7102 414.218 32.2045 414.673 32.5568C415.127 32.9034 415.69 33.0767 416.36 33.0767C417.496 33.0767 418.36 32.5824 418.951 31.5938C419.542 30.5994 419.84 29.2386 419.846 27.5114H419.727C419.465 28.0227 419.113 28.4631 418.67 28.8324C418.227 29.196 417.718 29.4773 417.144 29.6761C416.576 29.875 415.971 29.9744 415.329 29.9744C414.3 29.9744 413.383 29.733 412.576 29.25C411.769 28.767 411.133 28.1023 410.667 27.2557C410.201 26.4091 409.968 25.4432 409.968 24.358C409.962 23.1875 410.232 22.1449 410.778 21.2301C411.323 20.3153 412.085 19.5994 413.062 19.0824C414.045 18.5597 415.187 18.3011 416.488 18.3068ZM416.513 21.2045C415.94 21.2045 415.428 21.3409 414.979 21.6136C414.536 21.8864 414.184 22.2528 413.923 22.7131C413.667 23.1733 413.542 23.6875 413.548 24.2557C413.548 24.8295 413.673 25.3466 413.923 25.8068C414.178 26.2614 414.525 26.625 414.962 26.8977C415.406 27.1648 415.911 27.2983 416.479 27.2983C416.906 27.2983 417.3 27.2187 417.664 27.0597C418.028 26.9006 418.343 26.6818 418.61 26.4034C418.883 26.1193 419.096 25.7926 419.249 25.4233C419.403 25.054 419.479 24.6619 419.479 24.2472C419.474 23.696 419.343 23.1903 419.087 22.7301C418.832 22.2699 418.479 21.9006 418.031 21.6222C417.582 21.3437 417.076 21.2045 416.513 21.2045Z" fill="url(#paint6_linear_6_60)"/>
<path d="M453.784 18.5455V25.1761H451.193V18.5455H453.784ZM456.43 36V33.3409L462.643 27.5881C463.172 27.0767 463.615 26.6165 463.973 26.2074C464.337 25.7983 464.612 25.3977 464.8 25.0057C464.987 24.608 465.081 24.179 465.081 23.7188C465.081 23.2074 464.964 22.767 464.732 22.3977C464.499 22.0227 464.18 21.7358 463.777 21.5369C463.374 21.3324 462.916 21.2301 462.405 21.2301C461.871 21.2301 461.405 21.3381 461.007 21.554C460.609 21.7699 460.303 22.0795 460.087 22.483C459.871 22.8864 459.763 23.3665 459.763 23.9233H456.26C456.26 22.7812 456.518 21.7898 457.036 20.9489C457.553 20.108 458.277 19.4574 459.209 18.9972C460.141 18.5369 461.214 18.3068 462.43 18.3068C463.68 18.3068 464.768 18.5284 465.695 18.9716C466.626 19.4091 467.351 20.017 467.868 20.7955C468.385 21.5739 468.643 22.4659 468.643 23.4716C468.643 24.1307 468.513 24.7812 468.251 25.4233C467.996 26.0653 467.538 26.7784 466.879 27.5625C466.22 28.3409 465.291 29.2756 464.092 30.3665L461.544 32.8636V32.983H468.874V36H456.43ZM478.391 36.3835C476.925 36.3778 475.664 36.017 474.607 35.3011C473.556 34.5852 472.746 33.5483 472.178 32.1903C471.616 30.8324 471.337 29.1989 471.343 27.2898C471.343 25.3864 471.624 23.7642 472.187 22.4233C472.755 21.0824 473.565 20.0625 474.616 19.3636C475.673 18.6591 476.931 18.3068 478.391 18.3068C479.852 18.3068 481.107 18.6591 482.158 19.3636C483.215 20.0682 484.028 21.0909 484.596 22.4318C485.164 23.767 485.445 25.3864 485.44 27.2898C485.44 29.2045 485.156 30.8409 484.587 32.1989C484.025 33.5568 483.218 34.5937 482.167 35.3097C481.116 36.0256 479.857 36.3835 478.391 36.3835ZM478.391 33.3239C479.391 33.3239 480.19 32.821 480.786 31.8153C481.383 30.8097 481.678 29.3011 481.673 27.2898C481.673 25.9659 481.536 24.8636 481.263 23.983C480.996 23.1023 480.616 22.4403 480.121 21.9972C479.633 21.554 479.056 21.3324 478.391 21.3324C477.397 21.3324 476.602 21.8295 476.005 22.8239C475.408 23.8182 475.107 25.3068 475.102 27.2898C475.102 28.6307 475.235 29.75 475.502 30.6477C475.775 31.5398 476.158 32.2102 476.653 32.6591C477.147 33.1023 477.727 33.3239 478.391 33.3239Z" fill="url(#paint7_linear_6_60)"/>
<path d="M515.784 18.5455V25.1761H513.193V18.5455H515.784ZM518.43 36V33.3409L524.643 27.5881C525.172 27.0767 525.615 26.6165 525.973 26.2074C526.337 25.7983 526.612 25.3977 526.8 25.0057C526.987 24.608 527.081 24.179 527.081 23.7188C527.081 23.2074 526.964 22.767 526.732 22.3977C526.499 22.0227 526.18 21.7358 525.777 21.5369C525.374 21.3324 524.916 21.2301 524.405 21.2301C523.871 21.2301 523.405 21.3381 523.007 21.554C522.609 21.7699 522.303 22.0795 522.087 22.483C521.871 22.8864 521.763 23.3665 521.763 23.9233H518.26C518.26 22.7812 518.518 21.7898 519.036 20.9489C519.553 20.108 520.277 19.4574 521.209 18.9972C522.141 18.5369 523.214 18.3068 524.43 18.3068C525.68 18.3068 526.768 18.5284 527.695 18.9716C528.626 19.4091 529.351 20.017 529.868 20.7955C530.385 21.5739 530.643 22.4659 530.643 23.4716C530.643 24.1307 530.513 24.7812 530.251 25.4233C529.996 26.0653 529.538 26.7784 528.879 27.5625C528.22 28.3409 527.291 29.2756 526.092 30.3665L523.544 32.8636V32.983H530.874V36H518.43ZM541.141 18.5455V36H537.451V22.0483H537.349L533.352 24.554V21.2812L537.673 18.5455H541.141Z" fill="url(#paint8_linear_6_60)"/>
<path d="M574.784 18.5455V25.1761H572.193V18.5455H574.784ZM577.43 36V33.3409L583.643 27.5881C584.172 27.0767 584.615 26.6165 584.973 26.2074C585.337 25.7983 585.612 25.3977 585.8 25.0057C585.987 24.608 586.081 24.179 586.081 23.7188C586.081 23.2074 585.964 22.767 585.732 22.3977C585.499 22.0227 585.18 21.7358 584.777 21.5369C584.374 21.3324 583.916 21.2301 583.405 21.2301C582.871 21.2301 582.405 21.3381 582.007 21.554C581.609 21.7699 581.303 22.0795 581.087 22.483C580.871 22.8864 580.763 23.3665 580.763 23.9233H577.26C577.26 22.7812 577.518 21.7898 578.036 20.9489C578.553 20.108 579.277 19.4574 580.209 18.9972C581.141 18.5369 582.214 18.3068 583.43 18.3068C584.68 18.3068 585.768 18.5284 586.695 18.9716C587.626 19.4091 588.351 20.017 588.868 20.7955C589.385 21.5739 589.643 22.4659 589.643 23.4716C589.643 24.1307 589.513 24.7812 589.251 25.4233C588.996 26.0653 588.538 26.7784 587.879 27.5625C587.22 28.3409 586.291 29.2756 585.092 30.3665L582.544 32.8636V32.983H589.874V36H577.43ZM592.548 36V33.3409L598.761 27.5881C599.289 27.0767 599.732 26.6165 600.09 26.2074C600.454 25.7983 600.729 25.3977 600.917 25.0057C601.104 24.608 601.198 24.179 601.198 23.7188C601.198 23.2074 601.082 22.767 600.849 22.3977C600.616 22.0227 600.298 21.7358 599.894 21.5369C599.491 21.3324 599.033 21.2301 598.522 21.2301C597.988 21.2301 597.522 21.3381 597.124 21.554C596.727 21.7699 596.42 22.0795 596.204 22.483C595.988 22.8864 595.88 23.3665 595.88 23.9233H592.377C592.377 22.7812 592.636 21.7898 593.153 20.9489C593.67 20.108 594.394 19.4574 595.326 18.9972C596.258 18.5369 597.332 18.3068 598.548 18.3068C599.798 18.3068 600.886 18.5284 601.812 18.9716C602.744 19.4091 603.468 20.017 603.985 20.7955C604.502 21.5739 604.761 22.4659 604.761 23.4716C604.761 24.1307 604.63 24.7812 604.369 25.4233C604.113 26.0653 603.656 26.7784 602.996 27.5625C602.337 28.3409 601.408 29.2756 600.21 30.3665L597.661 32.8636V32.983H604.991V36H592.548Z" fill="url(#paint9_linear_6_60)"/>
<path d="M633.784 18.5455V25.1761H631.193V18.5455H633.784ZM636.43 36V33.3409L642.643 27.5881C643.172 27.0767 643.615 26.6165 643.973 26.2074C644.337 25.7983 644.612 25.3977 644.8 25.0057C644.987 24.608 645.081 24.179 645.081 23.7188C645.081 23.2074 644.964 22.767 644.732 22.3977C644.499 22.0227 644.18 21.7358 643.777 21.5369C643.374 21.3324 642.916 21.2301 642.405 21.2301C641.871 21.2301 641.405 21.3381 641.007 21.554C640.609 21.7699 640.303 22.0795 640.087 22.483C639.871 22.8864 639.763 23.3665 639.763 23.9233H636.26C636.26 22.7812 636.518 21.7898 637.036 20.9489C637.553 20.108 638.277 19.4574 639.209 18.9972C640.141 18.5369 641.214 18.3068 642.43 18.3068C643.68 18.3068 644.768 18.5284 645.695 18.9716C646.626 19.4091 647.351 20.017 647.868 20.7955C648.385 21.5739 648.643 22.4659 648.643 23.4716C648.643 24.1307 648.513 24.7812 648.251 25.4233C647.996 26.0653 647.538 26.7784 646.879 27.5625C646.22 28.3409 645.291 29.2756 644.092 30.3665L641.544 32.8636V32.983H648.874V36H636.43ZM657.999 36.2386C656.727 36.2386 655.593 36.0199 654.599 35.5824C653.61 35.1392 652.829 34.5312 652.255 33.7585C651.687 32.9801 651.394 32.0824 651.377 31.0653H655.093C655.116 31.4915 655.255 31.8665 655.511 32.1903C655.772 32.5085 656.119 32.7557 656.55 32.9318C656.982 33.108 657.468 33.196 658.008 33.196C658.57 33.196 659.067 33.0966 659.499 32.8977C659.931 32.6989 660.269 32.4233 660.513 32.071C660.758 31.7187 660.88 31.3125 660.88 30.8523C660.88 30.3864 660.749 29.9744 660.488 29.6165C660.232 29.2528 659.863 28.9687 659.38 28.7642C658.903 28.5597 658.335 28.4574 657.675 28.4574H656.048V25.7472H657.675C658.232 25.7472 658.724 25.6506 659.15 25.4574C659.582 25.2642 659.917 24.9972 660.156 24.6562C660.394 24.3097 660.513 23.9062 660.513 23.446C660.513 23.0085 660.408 22.625 660.198 22.2955C659.994 21.9602 659.704 21.6989 659.329 21.5114C658.96 21.3239 658.528 21.2301 658.033 21.2301C657.533 21.2301 657.076 21.321 656.661 21.5028C656.246 21.679 655.914 21.9318 655.664 22.2614C655.414 22.5909 655.281 22.9773 655.263 23.4205H651.727C651.744 22.4148 652.031 21.5284 652.587 20.7614C653.144 19.9943 653.894 19.3949 654.837 18.9631C655.786 18.5256 656.857 18.3068 658.05 18.3068C659.255 18.3068 660.309 18.5256 661.212 18.9631C662.116 19.4006 662.817 19.9915 663.317 20.7358C663.823 21.4744 664.073 22.304 664.067 23.2244C664.073 24.2017 663.769 25.017 663.156 25.6705C662.548 26.3239 661.755 26.7386 660.778 26.9148V27.0511C662.062 27.2159 663.039 27.6619 663.71 28.3892C664.386 29.1108 664.721 30.0142 664.715 31.0994C664.721 32.0938 664.434 32.9773 663.854 33.75C663.281 34.5227 662.488 35.1307 661.477 35.5739C660.465 36.017 659.306 36.2386 657.999 36.2386Z" fill="url(#paint10_linear_6_60)"/>
</g>
<defs>
<linearGradient id="paint0_linear_6_60" x1="676" y1="18" x2="755" y2="18" gradientUnits="userSpaceOnUse">
<stop stop-color="#0083BF"/>
<stop offset="1" stop-color="#009B4D"/>
</linearGradient>
<linearGradient id="paint1_linear_6_60" x1="63" y1="18" x2="138" y2="18" gradientUnits="userSpaceOnUse">
<stop stop-color="#0083BF"/>
<stop offset="1" stop-color="#009B4D"/>
</linearGradient>
<linearGradient id="paint2_linear_6_60" x1="152" y1="27.5" x2="185" y2="27.5" gradientUnits="userSpaceOnUse">
<stop stop-color="#0083BF"/>
<stop offset="1" stop-color="#009B4D"/>
</linearGradient>
<linearGradient id="paint3_linear_6_60" x1="212" y1="27.5" x2="245" y2="27.5" gradientUnits="userSpaceOnUse">
<stop stop-color="#0083BF"/>
<stop offset="1" stop-color="#009B4D"/>
</linearGradient>
<linearGradient id="paint4_linear_6_60" x1="273" y1="27.5" x2="305" y2="27.5" gradientUnits="userSpaceOnUse">
<stop stop-color="#0083BF"/>
<stop offset="1" stop-color="#009B4D"/>
</linearGradient>
<linearGradient id="paint5_linear_6_60" x1="332" y1="27.5" x2="365" y2="27.5" gradientUnits="userSpaceOnUse">
<stop stop-color="#0083BF"/>
<stop offset="1" stop-color="#009B4D"/>
</linearGradient>
<linearGradient id="paint6_linear_6_60" x1="392" y1="27.5" x2="425" y2="27.5" gradientUnits="userSpaceOnUse">
<stop stop-color="#0083BF"/>
<stop offset="1" stop-color="#009B4D"/>
</linearGradient>
<linearGradient id="paint7_linear_6_60" x1="450" y1="27.5" x2="487" y2="27.5" gradientUnits="userSpaceOnUse">
<stop stop-color="#0083BF"/>
<stop offset="1" stop-color="#009B4D"/>
</linearGradient>
<linearGradient id="paint8_linear_6_60" x1="512" y1="27.5" x2="545" y2="27.5" gradientUnits="userSpaceOnUse">
<stop stop-color="#0083BF"/>
<stop offset="1" stop-color="#009B4D"/>
</linearGradient>
<linearGradient id="paint9_linear_6_60" x1="571" y1="27.5" x2="607" y2="27.5" gradientUnits="userSpaceOnUse">
<stop stop-color="#0083BF"/>
<stop offset="1" stop-color="#009B4D"/>
</linearGradient>
<linearGradient id="paint10_linear_6_60" x1="630" y1="27.5" x2="667" y2="27.5" gradientUnits="userSpaceOnUse">
<stop stop-color="#0083BF"/>
<stop offset="1" stop-color="#009B4D"/>
</linearGradient>
<clipPath id="clip0_6_60">
<rect width="815" height="57" fill="white"/>
</clipPath>
</defs>
</svg>
